<svg xmlns="http://www.w3.org/2000/svg" viewBox="0 0 16 16"><path fill="#2496ED" d="M15.11 6.72C15.07 6.69 14.7 6.42 13.93 6.42 13.72 6.42 13.52 6.43 13.32 6.47 13.17 5.44 12.32 4.94 12.28 4.92L12.07 4.8 11.94 5C11.77 5.26 11.64 5.55 11.57 5.86 11.43 6.45 11.51 7 11.81 7.47 11.45 7.67 10.88 7.72 10.76 7.72H1.21A0.45 0.45 0 0 0 0.76 8.17 6.87 6.87 0 0 0 1.18 10.63C1.51 11.49 2 12.12 2.63 12.51 3.35 12.95 4.51 13.2 5.82 13.2 6.41 13.2 7 13.15 7.59 13.04A7.4 7.4 0 0 0 9.9 12.2C10.49 11.86 11.02 11.42 11.47 10.91 12.23 10.05 12.68 9.1 13.01 8.25H13.15C13.98 8.25 14.48 7.92 14.76 7.64 14.95 7.47 15.1 7.25 15.19 7.01L15.25 6.84ZM2.93 7.44H4.21A0.11 0.11 0 0 0 4.32 7.33V6.19A0.11 0.11 0 0 0 4.21 6.08H2.93A0.11 0.11 0 0 0 2.82 6.19V7.33C2.82 7.4 2.87 7.44 2.93 7.44M5.65 7.44H6.93A0.11 0.11 0 0 0 7.04 7.33V6.19A0.11 0.11 0 0 0 6.93 6.08H5.65A0.11 0.11 0 0 0 5.54 6.19V7.33C5.54 7.4 5.59 7.44 5.65 7.44M8.37 7.44H9.65A0.11 0.11 0 0 0 9.76 7.33V6.19A0.11 0.11 0 0 0 9.65 6.08H8.37A0.11 0.11 0 0 0 8.25 6.19V7.33C8.25 7.4 8.31 7.44 8.37 7.44M2.93 5.8H4.21A0.11 0.11 0 0 0 4.32 5.69V4.55A0.11 0.11 0 0 0 4.21 4.44H2.93A0.11 0.11 0 0 0 2.82 4.55V5.69C2.82 5.75 2.87 5.8 2.93 5.8M5.65 5.8H6.93A0.11 0.11 0 0 0 7.04 5.69V4.55A0.11 0.11 0 0 0 6.93 4.44H5.65A0.11 0.11 0 0 0 5.54 4.55V5.69C5.54 5.75 5.59 5.8 5.65 5.8M8.37 5.8H9.65A0.11 0.11 0 0 0 9.76 5.69V4.55A0.11 0.11 0 0 0 9.65 4.44H8.37A0.11 0.11 0 0 0 8.25 4.55V5.69C8.25 5.75 8.31 5.8 8.37 5.8M8.37 4.16H9.65A0.11 0.11 0 0 0 9.76 4.05V2.91A0.11 0.11 0 0 0 9.65 2.8H8.37A0.11 0.11 0 0 0 8.25 2.91V4.05C8.25 4.12 8.31 4.16 8.37 4.16"/></svg>