<svg xmlns="http://www.w3.org/2000/svg" viewBox="0 0 16 16"><path fill="#2563EB" d="M8.41 10.9L7.08 9.65A1.92 1.92 0 0 1 6.41 10.23Q5.98 10.45 5.41 10.45A2.25 2.25 0 0 1 4.51 10.27 2.08 2.08 0 0 1 3.81 9.78 2.28 2.28 0 0 1 3.34 9.01 2.77 2.77 0 0 1 3.18 8.04 2.69 2.69 0 0 1 3.34 7.07 2.31 2.31 0 0 1 3.81 6.31 2.16 2.16 0 0 1 4.53 5.8 2.26 2.26 0 0 1 5.45 5.62 2.33 2.33 0 0 1 6.34 5.8 1.6 1.6 0 0 1 7.04 6.34L8.33 5.05Q7.83 4.48 7.02 4.19A4.87 4.87 0 0 0 3.7 4.18 4.02 4.02 0 0 0 2.34 5.01 3.81 3.81 0 0 0 1.44 6.32Q1.11 7.09 1.11 8.04A4.32 4.32 0 0 0 1.43 9.73 3.89 3.89 0 0 0 3.66 11.9 4.62 4.62 0 0 0 5.35 12.2Q6.35 12.2 7.12 11.85A3.75 3.75 0 0 0 8.41 10.9H8.41Z"/><path fill="#7C3AED" d="M14.79 9.07A1.83 1.83 0 0 0 14.48 8.54 1.98 1.98 0 0 0 14 8.12 2.03 2.03 0 0 0 13.38 7.87V7.84A1.82 1.82 0 0 0 14.34 7.23Q14.71 6.78 14.71 6.12 14.71 5.56 14.47 5.14A2.18 2.18 0 0 0 13.84 4.44 2.73 2.73 0 0 0 12.96 4.03 3.9 3.9 0 0 0 11.94 3.89 3.61 3.61 0 0 0 10.98 4.02 3.16 3.16 0 0 0 10.12 4.4 2.67 2.67 0 0 0 9.43 5.02 2.57 2.57 0 0 0 9 5.9L10.74 6.3A1.1 1.1 0 0 1 11.12 5.66 1.07 1.07 0 0 1 11.82 5.42 1.13 1.13 0 0 1 12.51 5.64Q12.81 5.87 12.81 6.29 12.81 6.58 12.69 6.76A0.85 0.85 0 0 1 12.38 7.05 1.36 1.36 0 0 1 11.94 7.19 3.24 3.24 0 0 1 11.43 7.23H10.88V8.59H11.38A3.39 3.39 0 0 1 11.96 8.64 1.81 1.81 0 0 1 12.48 8.81 0.99 0.99 0 0 1 12.84 9.13 0.86 0.86 0 0 1 12.98 9.63 0.95 0.95 0 0 1 12.88 10.09 0.93 0.93 0 0 1 12.61 10.4 1.12 1.12 0 0 1 12.24 10.57 1.55 1.55 0 0 1 11.84 10.63Q11.3 10.63 10.96 10.33A1.4 1.4 0 0 1 10.5 9.65L8.77 10.11A2.63 2.63 0 0 0 9.96 11.7 3.28 3.28 0 0 0 10.89 12.08 4.42 4.42 0 0 0 11.93 12.2 3.92 3.92 0 0 0 13 12.05 3.02 3.02 0 0 0 13.95 11.59 2.35 2.35 0 0 0 14.64 10.81Q14.9 10.34 14.9 9.7A1.76 1.76 0 0 0 14.79 9.07Z"/></svg>