<svg xmlns="http://www.w3.org/2000/svg" viewBox="0 0 16 16"><path fill="#01579B" d="M4.21 12.93L2.02 10.74C1.76 10.47 1.6 10.09 1.6 9.73 1.6 9.56 1.7 9.29 1.77 9.14L3.79 4.93 4.21 12.93Z"/><path fill="#40C4FF" d="M11.71 5.35L9.52 3.16C9.32 2.97 8.93 2.74 8.59 2.74 8.3 2.74 8.02 2.79 7.83 2.91L3.79 4.93 11.71 5.35Z"/><path fill="#29B6F6" d="M3.79 11.75C3.79 12.42 3.87 12.59 4.21 12.93L4.55 13.26H12.13L8.42 9.05 3.79 4.93V11.75Z"/><path fill="#01579B" d="M10.53 4.93H3.79L12.13 13.26H14.4V8.04L11.71 5.35C11.33 4.97 10.99 4.93 10.53 4.93Z"/></svg>